<?xml version="1.0" encoding="utf-8"?>
<!-- Generator: Adobe Illustrator 19.0.0, SVG Export Plug-In . SVG Version: 6.00 Build 0)  -->
<svg version="1.1" id="Layer_1" xmlns="http://www.w3.org/2000/svg" xmlns:xlink="http://www.w3.org/1999/xlink" x="0px" y="0px"
	 viewBox="0 0 30 30" style="enable-background:new 0 0 30 30;" xml:space="preserve">
<style type="text/css">
	.st0{fill:#DBB472;}
	.st1{fill:#3A342B;}
</style>
<g id="XMLID_8_">
	<path id="XMLID_1_" class="st0" d="M26.2,29.3H3.8c-1.1,0-2-0.9-2-2V2.7c0-1.1,0.9-2,2-2h22.4c1.1,0,2,0.9,2,2v24.6
		C28.1,28.4,27.3,29.3,26.2,29.3z"/>
	<path id="XMLID_2_" class="st1" d="M4.9,6.4h20.1c0.4,0,0.7-0.3,0.7-0.7v-2c0-0.4-0.3-0.7-0.7-0.7H4.9c-0.4,0-0.7,0.3-0.7,0.7v2
		C4.3,6.1,4.6,6.4,4.9,6.4z"/>
	<path id="XMLID_3_" class="st1" d="M24.2,26.6H5.8c-0.7,0-1.2-0.5-1.2-1.2V11.7c0-0.7,0.5-1.2,1.2-1.2h18.4c0.7,0,1.2,0.5,1.2,1.2
		v13.7C25.4,26.1,24.9,26.6,24.2,26.6z"/>
	<path id="XMLID_4_" class="st0" d="M6.9,14.7h16.3c0.4,0,0.7-0.3,0.7-0.7v-0.8c0-0.4-0.3-0.7-0.7-0.7H6.9c-0.4,0-0.7,0.3-0.7,0.7
		v0.8C6.2,14.5,6.5,14.7,6.9,14.7z"/>
	<path id="XMLID_5_" class="st0" d="M6.9,18.2h16.3c0.4,0,0.7-0.3,0.7-0.7v-0.8c0-0.4-0.3-0.7-0.7-0.7H6.9c-0.4,0-0.7,0.3-0.7,0.7
		v0.8C6.2,17.9,6.5,18.2,6.9,18.2z"/>
	<path id="XMLID_6_" class="st0" d="M6.9,21.6h16.3c0.4,0,0.7-0.3,0.7-0.7v-0.8c0-0.4-0.3-0.7-0.7-0.7H6.9c-0.4,0-0.7,0.3-0.7,0.7
		v0.8C6.2,21.3,6.5,21.6,6.9,21.6z"/>
	<path id="XMLID_7_" class="st0" d="M6.9,25.1h16.3c0.4,0,0.7-0.3,0.7-0.7v-0.8c0-0.4-0.3-0.7-0.7-0.7H6.9c-0.4,0-0.7,0.3-0.7,0.7
		v0.8C6.2,24.8,6.5,25.1,6.9,25.1z"/>
</g>
</svg>
